<svg xmlns="http://www.w3.org/2000/svg" width="30" height="30" viewBox="0 0 30 30">
  <g id="Group_4939" data-name="Group 4939" transform="translate(-20 -42)">
    <rect id="Rectangle_3591" data-name="Rectangle 3591" width="30" height="30" transform="translate(20 42)" fill="none"/>
    <g id="noun_menu_1166847" transform="translate(27.052 49.078)">
      <path id="Path_5709" data-name="Path 5709" d="M24.441,14.773h-10.1a.836.836,0,0,1-.837-.837h0a.836.836,0,0,1,.837-.837h10.1a.836.836,0,0,1,.837.837h0A.836.836,0,0,1,24.441,14.773Z" transform="translate(-13.5 -13.1)" fill="#fff"/>
      <path id="Path_5710" data-name="Path 5710" d="M28.8,47.773H14.337a.836.836,0,0,1-.837-.837h0a.836.836,0,0,1,.837-.837H28.8a.836.836,0,0,1,.837.837h0A.836.836,0,0,1,28.8,47.773Z" transform="translate(-13.5 -38.835)" fill="#fff"/>
      <path id="Path_5711" data-name="Path 5711" d="M24.441,80.773h-10.1a.836.836,0,0,1-.837-.837h0a.836.836,0,0,1,.837-.837h10.1a.836.836,0,0,1,.837.837h0A.836.836,0,0,1,24.441,80.773Z" transform="translate(-13.5 -64.57)" fill="#fff"/>
    </g>
  </g>
</svg>
