<svg xmlns="http://www.w3.org/2000/svg" width="12.636" height="12.636" viewBox="0 0 12.636 12.636">
  <path id="Icon_ionic-ios-call1a" data-name="Icon ionic-ios-call1a" d="M15.826,13.642a9.8,9.8,0,0,0-2.048-1.37c-.614-.295-.839-.289-1.273.024-.362.261-.6.5-1.012.413A6.036,6.036,0,0,1,9.46,11.2a5.993,5.993,0,0,1-1.5-2.033c-.088-.419.155-.65.413-1.012.313-.435.322-.659.024-1.273a9.611,9.611,0,0,0-1.37-2.048c-.447-.447-.547-.349-.793-.261a4.513,4.513,0,0,0-.726.386,2.191,2.191,0,0,0-.872.921c-.173.374-.374,1.07.647,2.887A16.108,16.108,0,0,0,8.11,12.548h0l0,0,0,0h0a16.171,16.171,0,0,0,3.777,2.832c1.817,1.021,2.513.82,2.887.647a2.154,2.154,0,0,0,.921-.872,4.513,4.513,0,0,0,.386-.726C16.175,14.189,16.275,14.089,15.826,13.642Z" transform="translate(-4.007 -4.022)" fill="none" stroke="#3b3838" stroke-width="1"/>
</svg>
