<svg xmlns="http://www.w3.org/2000/svg" width="36.316" height="11.203" viewBox="0 0 36.316 11.203">
  <path id="Path_16841" data-name="Path 16841" d="M-118.549-17.163v-2.026a1.036,1.036,0,0,0-.036-.326.129.129,0,0,0-.126-.1h-.528q-.707,0-.707-1.973v-2.554q0-1.938.755-1.938h.731q.755,0,.755,1.938v1.462h-.857v-1.11q0-.44-.162-.44h-.2q-.162,0-.162.44v1.973a1.036,1.036,0,0,0,.036.326.128.128,0,0,0,.126.1h.516q.384,0,.552.484a4.645,4.645,0,0,1,.168,1.436v2.642q0,1.955-.755,1.955h-.725q-.761,0-.761-1.955v-1.444h.857v1.11q0,.44.162.44h.2Q-118.549-16.723-118.549-17.163Zm1.325-8.913h1.571q.755,0,.755,1.938v3.4q0,1.955-.755,1.955h-.719v3.91h-.851Zm1.469,5v-2.713q0-.44-.156-.44h-.462v3.593h.462Q-115.755-20.633-115.755-21.074Zm2-5h.8q.755,0,.755,1.938v7.31q0,1.955-.755,1.955h-.8q-.761,0-.761-1.955v-7.31Q-114.514-26.076-113.753-26.076Zm.7,8.913v-6.623q0-.44-.156-.44h-.288q-.162,0-.162.44v6.623q0,.44.162.44h.288Q-113.052-16.723-113.052-17.163Zm2.224-1.9v4.192h-.851v-11.2h1.571q.755,0,.755,1.938V-21q0,1.55-.48,1.867l.671,4.263h-.917l-.6-4.192Zm0-5.161v3.382h.462a.125.125,0,0,0,.12-.1,1.036,1.036,0,0,0,.036-.326v-2.519q0-.44-.156-.44Zm3.974-1.849v1.849h-.7v9.353h-.857v-9.353h-.7v-1.849Zm1.625,8.913v-2.026a1.036,1.036,0,0,0-.036-.326.129.129,0,0,0-.126-.1h-.528q-.707,0-.707-1.973v-2.554q0-1.938.755-1.938h.731q.755,0,.755,1.938v1.462h-.857v-1.11q0-.44-.162-.44h-.2q-.162,0-.162.44v1.973a1.036,1.036,0,0,0,.036.326.129.129,0,0,0,.126.1h.516q.384,0,.552.484a4.645,4.645,0,0,1,.168,1.436v2.642q0,1.955-.755,1.955h-.725q-.761,0-.761-1.955v-1.444h.857v1.11q0,.44.162.44h.2Q-105.229-16.723-105.229-17.163Zm3.135-8.913h.8q.755,0,.755,1.938v7.31q0,1.955-.755,1.955h-.8q-.761,0-.761-1.955v-7.31Q-102.855-26.076-102.093-26.076Zm.7,8.913v-6.623q0-.44-.156-.44h-.288q-.162,0-.162.44v6.623q0,.44.162.44h.288Q-101.392-16.723-101.392-17.163Zm2.967-8.913h.785v11.2h-.767l-.833-6.711v6.711h-.779v-11.2h.773l.821,6.693Zm5.707,0h.851l-.737,11.2h-1.025l-.426-7.327-.426,7.327h-1.025l-.737-11.2h.887l.36,8.367.5-8.367h.869l.5,8.367Zm2.794,0h.845v11.2h-.845v-4.615h-.767v4.615h-.845v-11.2h.845v4.738h.767Zm3.123,11.2-.132-2.026H-87.8l-.132,2.026h-.845l.863-11.2h1.091l.887,11.2Zm-.881-3.857h.623l-.312-4.738Zm4.052-7.345v1.849h-.7v9.353h-.857v-9.353h-.7v-1.849Z" transform="translate(119.945 26.076)" fill="#024"/>
</svg>
