<svg id="Group_8096" data-name="Group 8096" xmlns="http://www.w3.org/2000/svg" width="23.346" height="15.691" viewBox="0 0 23.346 15.691">
  <g id="Path_3012" data-name="Path 3012" fill="#fff">
    <path d="M 20.98750686645508 15.5663423538208 L 2.358147621154785 15.5663423538208 C 1.126787662506104 15.5663423538208 0.1249977201223373 14.56455230712891 0.1249977201223373 13.33319187164307 L 0.1249977201223373 2.358152151107788 C 0.1249977201223373 1.126792073249817 1.126787662506104 0.1250021308660507 2.358147621154785 0.1250021308660507 L 20.98750686645508 0.1250021308660507 C 22.21886825561523 0.1250021308660507 23.22065734863281 1.126792073249817 23.22065734863281 2.358152151107788 L 23.22065734863281 6.816352367401123 L 23.22065734863281 13.33319187164307 C 23.22065734863281 14.56455230712891 22.21886825561523 15.5663423538208 20.98750686645508 15.5663423538208 Z" stroke="none"/>
    <path d="M 2.358148574829102 0.2500019073486328 C 1.195707321166992 0.2500019073486328 0.2499980926513672 1.195712089538574 0.2499980926513672 2.358152389526367 L 0.2499980926513672 13.33319187164307 C 0.2499980926513672 14.49563217163086 1.195707321166992 15.4413423538208 2.358148574829102 15.4413423538208 L 20.98750686645508 15.4413423538208 C 22.14994812011719 15.4413423538208 23.09565734863281 14.49563217163086 23.09565734863281 13.33319187164307 L 23.09565734863281 2.358152389526367 C 23.09565734863281 1.195712089538574 22.14994812011719 0.2500019073486328 20.98750686645508 0.2500019073486328 L 2.358148574829102 0.2500019073486328 M 2.358148574829102 1.9073486328125e-06 L 20.98750686645508 1.9073486328125e-06 C 22.28987693786621 1.9073486328125e-06 23.34565734863281 1.055782318115234 23.34565734863281 2.358152389526367 L 23.34565734863281 13.33319187164307 C 23.34565734863281 14.6355619430542 22.28987693786621 15.6913423538208 20.98750686645508 15.6913423538208 L 2.358148574829102 15.6913423538208 C 1.055778503417969 15.6913423538208 -1.9073486328125e-06 14.6355619430542 -1.9073486328125e-06 13.33319187164307 L -1.9073486328125e-06 2.358152389526367 C -1.9073486328125e-06 1.055782318115234 1.055778503417969 1.9073486328125e-06 2.358148574829102 1.9073486328125e-06 Z" stroke="none" fill="#707070"/>
  </g>
  <path id="Rectangle_404" data-name="Rectangle 404" d="M0,0H23.346a0,0,0,0,1,0,0V.444a3,3,0,0,1-3,3H3a3,3,0,0,1-3-3V0A0,0,0,0,1,0,0Z" transform="translate(0 12.247)" fill="#e59703"/>
  <path id="Rectangle_405" data-name="Rectangle 405" d="M3,0H20.346a3,3,0,0,1,3,3v.827a0,0,0,0,1,0,0H0a0,0,0,0,1,0,0V3A3,3,0,0,1,3,0Z" fill="#09599e"/>
  <g id="visa" transform="translate(2.679 5.358)">
    <g id="Group_46" data-name="Group 46">
      <path id="Path_59" data-name="Path 59" d="M150.7,7.02l.834-4.82h1.33l-.834,4.82Z" transform="translate(-144.906 -2.117)" fill="#005098"/>
      <path id="Path_60" data-name="Path 60" d="M211.191.2A3.465,3.465,0,0,0,210,0c-1.315,0-2.242.652-2.249,1.589-.008.694.661,1.081,1.169,1.308s.692.387.692.6c0,.322-.415.47-.8.47a2.8,2.8,0,0,1-1.253-.254l-.173-.076L207.2,4.717a4.34,4.34,0,0,0,1.484.258c1.4,0,2.307-.645,2.319-1.646,0-.546-.35-.963-1.119-1.308-.465-.224-.75-.372-.75-.6,0-.2.242-.413.761-.413a2.452,2.452,0,0,1,1,.186l.119.057L211.191.2Z" transform="translate(-199.233)" fill="#005098"/>
      <path id="Path_61" data-name="Path 61" d="M307.2,2.3h-1.03a.663.663,0,0,0-.7.4L303.5,7.116h1.4s.227-.6.281-.724l1.707,0c.038.167.161.721.161.721h1.238L307.2,2.3Zm-1.642,3.106c.112-.277.531-1.346.531-1.346s.108-.281.177-.459l.088.417.308,1.392h-1.1Z" transform="translate(-291.83 -2.213)" fill="#005098"/>
      <path id="Path_62" data-name="Path 62" d="M39.488,2.3l-1.3,3.288-.138-.667A3.776,3.776,0,0,0,36.2,2.9l1.192,4.213H38.8L40.9,2.3Z" transform="translate(-34.808 -2.213)" fill="#005098"/>
      <path id="Path_63" data-name="Path 63" d="M2.165,2.2H.015L0,2.3A4.381,4.381,0,0,1,3.234,4.824L2.768,2.61a.559.559,0,0,0-.6-.41Z" transform="translate(0 -2.117)" fill="#f6a500"/>
    </g>
  </g>
</svg>
